<?xml version="1.0" encoding="UTF-8" standalone="no"?>
<!-- Generator: Adobe Fireworks CS6, Export SVG Extension by Aaron Beall (http://fireworks.abeall.com) . Version: 0.6.1  -->

<svg
   xmlns:osb="http://www.openswatchbook.org/uri/2009/osb"
   xmlns:dc="http://purl.org/dc/elements/1.1/"
   xmlns:cc="http://creativecommons.org/ns#"
   xmlns:rdf="http://www.w3.org/1999/02/22-rdf-syntax-ns#"
   xmlns:svg="http://www.w3.org/2000/svg"
   xmlns="http://www.w3.org/2000/svg"
   xmlns:xlink="http://www.w3.org/1999/xlink"
   xmlns:sodipodi="http://sodipodi.sourceforge.net/DTD/sodipodi-0.dtd"
   xmlns:inkscape="http://www.inkscape.org/namespaces/inkscape"
   id="controls.fw-Page%201"
   viewBox="0 0 144 32"
   style="background-color:#ffffff00"
   version="1.1"
   xml:space="preserve"
   x="0px"
   y="0px"
   width="144px"
   height="32px"
   inkscape:version="0.91 r13725"
   sodipodi:docname="controls.svg"
   inkscape:export-filename="/home/kennric/projects/podmin/podmin/static/css/controls.png"
   inkscape:export-xdpi="218.76521"
   inkscape:export-ydpi="218.76521"><metadata
     id="metadata4859"><rdf:RDF><cc:Work
         rdf:about=""><dc:format>image/svg+xml</dc:format><dc:type
           rdf:resource="http://purl.org/dc/dcmitype/StillImage" /><dc:title></dc:title></cc:Work></rdf:RDF></metadata><sodipodi:namedview
     pagecolor="#ffffff"
     bordercolor="#666666"
     borderopacity="1"
     objecttolerance="10"
     gridtolerance="10"
     guidetolerance="10"
     inkscape:pageopacity="0"
     inkscape:pageshadow="2"
     inkscape:window-width="1195"
     inkscape:window-height="799"
     id="namedview4857"
     showgrid="false"
     inkscape:zoom="10.1875"
     inkscape:cx="92.208328"
     inkscape:cy="16"
     inkscape:window-x="185"
     inkscape:window-y="30"
     inkscape:window-maximized="0"
     inkscape:current-layer="controls.fw-Page%201" /><defs
     id="defs4660"><linearGradient
       inkscape:collect="always"
       id="linearGradient6392"><stop
         style="stop-color:#d04526;stop-opacity:1;"
         offset="0"
         id="stop6394" /><stop
         style="stop-color:#d04526;stop-opacity:0;"
         offset="1"
         id="stop6396" /></linearGradient><linearGradient
       inkscape:collect="always"
       id="linearGradient6384"><stop
         style="stop-color:#d04526;stop-opacity:1;"
         offset="0"
         id="stop6386" /><stop
         style="stop-color:#d04526;stop-opacity:0;"
         offset="1"
         id="stop6388" /></linearGradient><linearGradient
       id="linearGradient6319"
       osb:paint="solid"><stop
         style="stop-color:#d04526;stop-opacity:1;"
         offset="0"
         id="stop6321" /></linearGradient><linearGradient
       id="linearGradient6313"
       osb:paint="solid"><stop
         style="stop-color:#d04526;stop-opacity:1;"
         offset="0"
         id="stop6315" /></linearGradient><radialGradient
       id="gradient1"
       cx="50%"
       cy="50%"
       r="50%"><stop
         stop-color="#ffffff"
         stop-opacity="1"
         offset="0%"
         id="stop4663" /><stop
         stop-color="#f2f2f2"
         stop-opacity="0.2"
         offset="100%"
         id="stop4665" /></radialGradient><linearGradient
       id="gradient2"
       x1="50%"
       y1="-7.8652%"
       x2="50%"
       y2="249.6629%"><stop
         stop-color="#ffffff"
         stop-opacity="1"
         offset="0%"
         id="stop4668" /><stop
         stop-color="#c8c8c8"
         stop-opacity="1"
         offset="100%"
         id="stop4670" /></linearGradient><linearGradient
       id="gradient3"
       x1="50%"
       y1="0%"
       x2="50%"
       y2="238.75%"><stop
         stop-color="#ffffff"
         stop-opacity="1"
         offset="0%"
         id="stop4673" /><stop
         stop-color="#c8c8c8"
         stop-opacity="1"
         offset="100%"
         id="stop4675" /></linearGradient><linearGradient
       id="gradient4"
       x1="50%"
       y1="0%"
       x2="50%"
       y2="100%"><stop
         stop-color="#ffffff"
         stop-opacity="1"
         offset="0%"
         id="stop4678" /><stop
         stop-color="#c8c8c8"
         stop-opacity="1"
         offset="100%"
         id="stop4680" /></linearGradient><linearGradient
       id="gradient5"
       x1="50%"
       y1="-33.3333%"
       x2="50%"
       y2="152.0833%"><stop
         stop-color="#ffffff"
         stop-opacity="1"
         offset="0%"
         id="stop4683" /><stop
         stop-color="#c8c8c8"
         stop-opacity="1"
         offset="100%"
         id="stop4685" /></linearGradient><linearGradient
       id="gradient6"
       x1="50%"
       y1="0%"
       x2="50%"
       y2="100%"><stop
         stop-color="#ffffff"
         stop-opacity="1"
         offset="0%"
         id="stop4688" /><stop
         stop-color="#c8c8c8"
         stop-opacity="1"
         offset="100%"
         id="stop4690" /></linearGradient><linearGradient
       id="gradient7"
       x1="50%"
       y1="-33.3333%"
       x2="50%"
       y2="152.0833%"><stop
         stop-color="#ffffff"
         stop-opacity="1"
         offset="0%"
         id="stop4693" /><stop
         stop-color="#c8c8c8"
         stop-opacity="1"
         offset="100%"
         id="stop4695" /></linearGradient><linearGradient
       id="gradient8"
       x1="50%"
       y1="0%"
       x2="50%"
       y2="100%"><stop
         stop-color="#ffffff"
         stop-opacity="1"
         offset="0%"
         id="stop4698" /><stop
         stop-color="#c8c8c8"
         stop-opacity="1"
         offset="100%"
         id="stop4700" /></linearGradient><linearGradient
       id="gradient9"
       x1="50%"
       y1="0%"
       x2="50%"
       y2="100%"><stop
         stop-color="#ffffff"
         stop-opacity="1"
         offset="0%"
         id="stop4703" /><stop
         stop-color="#c8c8c8"
         stop-opacity="1"
         offset="100%"
         id="stop4705" /></linearGradient><linearGradient
       id="gradient10"
       x1="50%"
       y1="0%"
       x2="50%"
       y2="100%"><stop
         stop-color="#ffffff"
         stop-opacity="1"
         offset="0%"
         id="stop4708" /><stop
         stop-color="#c8c8c8"
         stop-opacity="1"
         offset="100%"
         id="stop4710" /></linearGradient><linearGradient
       id="gradient11"
       x1="50%"
       y1="0%"
       x2="50%"
       y2="100%"><stop
         stop-color="#ffffff"
         stop-opacity="1"
         offset="0%"
         id="stop4713" /><stop
         stop-color="#c8c8c8"
         stop-opacity="1"
         offset="100%"
         id="stop4715" /></linearGradient><linearGradient
       id="gradient12"
       x1="50%"
       y1="0%"
       x2="50%"
       y2="238.75%"><stop
         stop-color="#ffffff"
         stop-opacity="1"
         offset="0%"
         id="stop4718" /><stop
         stop-color="#c8c8c8"
         stop-opacity="1"
         offset="100%"
         id="stop4720" /></linearGradient><linearGradient
       id="gradient13"
       x1="40%"
       y1="-140%"
       x2="40%"
       y2="98.75%"><stop
         stop-color="#ffffff"
         stop-opacity="1"
         offset="0%"
         id="stop4723" /><stop
         stop-color="#c8c8c8"
         stop-opacity="1"
         offset="100%"
         id="stop4725" /></linearGradient><linearGradient
       id="gradient14"
       x1="50%"
       y1="0%"
       x2="50%"
       y2="238.75%"><stop
         stop-color="#ffffff"
         stop-opacity="1"
         offset="0%"
         id="stop4728" /><stop
         stop-color="#c8c8c8"
         stop-opacity="1"
         offset="100%"
         id="stop4730" /></linearGradient><linearGradient
       id="gradient15"
       x1="60%"
       y1="-140%"
       x2="60%"
       y2="98.75%"><stop
         stop-color="#ffffff"
         stop-opacity="1"
         offset="0%"
         id="stop4733" /><stop
         stop-color="#c8c8c8"
         stop-opacity="1"
         offset="100%"
         id="stop4735" /></linearGradient><linearGradient
       id="gradient16"
       x1="50%"
       y1="0%"
       x2="50%"
       y2="298.4375%"><stop
         stop-color="#ffffff"
         stop-opacity="1"
         offset="0%"
         id="stop4738" /><stop
         stop-color="#c8c8c8"
         stop-opacity="1"
         offset="100%"
         id="stop4740" /></linearGradient><linearGradient
       id="gradient17"
       x1="50%"
       y1="0%"
       x2="50%"
       y2="238.75%"><stop
         stop-color="#ffffff"
         stop-opacity="1"
         offset="0%"
         id="stop4743" /><stop
         stop-color="#c8c8c8"
         stop-opacity="1"
         offset="100%"
         id="stop4745" /></linearGradient><linearGradient
       id="gradient18"
       x1="50%"
       y1="-200%"
       x2="50%"
       y2="100%"><stop
         stop-color="#ffffff"
         stop-opacity="1"
         offset="0%"
         id="stop4748" /><stop
         stop-color="#c8c8c8"
         stop-opacity="1"
         offset="100%"
         id="stop4750" /></linearGradient><linearGradient
       id="gradient19"
       x1="50%"
       y1="-200%"
       x2="50%"
       y2="110.9375%"><stop
         stop-color="#ffffff"
         stop-opacity="1"
         offset="0%"
         id="stop4753" /><stop
         stop-color="#c8c8c8"
         stop-opacity="1"
         offset="100%"
         id="stop4755" /></linearGradient><linearGradient
       id="gradient20"
       x1="55%"
       y1="0%"
       x2="55%"
       y2="100%"><stop
         stop-color="#ffffff"
         stop-opacity="1"
         offset="0%"
         id="stop4758" /><stop
         stop-color="#c8c8c8"
         stop-opacity="1"
         offset="100%"
         id="stop4760" /></linearGradient><linearGradient
       id="gradient21"
       x1="50%"
       y1="0%"
       x2="50%"
       y2="100%"><stop
         stop-color="#ffffff"
         stop-opacity="1"
         offset="0%"
         id="stop4763" /><stop
         stop-color="#c8c8c8"
         stop-opacity="1"
         offset="99.4444%"
         id="stop4765" /></linearGradient><linearGradient
       inkscape:collect="always"
       xlink:href="#linearGradient6384"
       id="linearGradient6390"
       x1="119.71165"
       y1="13.006135"
       x2="119.89571"
       y2="3.1901841"
       gradientUnits="userSpaceOnUse" /><linearGradient
       inkscape:collect="always"
       xlink:href="#linearGradient6392"
       id="linearGradient6398"
       x1="135.79797"
       y1="14.674847"
       x2="135.80939"
       y2="1.3251534"
       gradientUnits="userSpaceOnUse" /></defs><g
     id="BG" /><g
     id="controls"><path
       id="Line"
       d="M 98.5 7.5 L 109.5 7.5 "
       stroke="#ffffff"
       stroke-width="1"
       fill="none" /><path
       id="Line2"
       d="M 98.5 3.5 L 109.5 3.5 "
       stroke="#ffffff"
       stroke-width="1"
       fill="none" /><path
       id="Line3"
       d="M 98.5 11.5 L 109.5 11.5 "
       stroke="#ffffff"
       stroke-width="1"
       fill="none" /><path
       id="Ellipse"
       d="M 108 11.5 C 108 10.6716 108.4477 10 109 10 C 109.5523 10 110 10.6716 110 11.5 C 110 12.3284 109.5523 13 109 13 C 108.4477 13 108 12.3284 108 11.5 Z"
       fill="#ffffff" /><path
       id="Ellipse2"
       d="M 104 7.5 C 104 6.6716 104.4477 6 105 6 C 105.5523 6 106 6.6716 106 7.5 C 106 8.3284 105.5523 9 105 9 C 104.4477 9 104 8.3284 104 7.5 Z"
       fill="#ffffff" /><path
       id="Ellipse3"
       d="M 108 3.5 C 108 2.6716 108.4477 2 109 2 C 109.5523 2 110 2.6716 110 3.5 C 110 4.3284 109.5523 5 109 5 C 108.4477 5 108 4.3284 108 3.5 Z"
       fill="#ffffff" /></g><g
     id="backlight"><g
       id="off"
       style="fill:#d04526;fill-opacity:0"><rect
         x="83"
         y="21"
         width="10"
         height="6"
         stroke="#ffffff"
         stroke-width="1"
         fill="#333333"
         id="rect4777"
         style="fill:#d04526;fill-opacity:0" /></g><g
       id="on"><path
         id="Ellipse4"
         d="M 81 8 C 81 5.2385 84.134 3 88 3 C 91.866 3 95 5.2385 95 8 C 95 10.7615 91.866 13 88 13 C 84.134 13 81 10.7615 81 8 Z"
         fill="url(#gradient1)" /><rect
         x="83"
         y="5"
         width="10"
         height="6"
         stroke="#ffffff"
         stroke-width="1"
         fill="#333333"
         id="rect4781"
         style="fill-opacity:0;fill:#d04526" /></g></g><g
     id="loop"
     style="fill:#d04526;fill-opacity:1"><g
       id="on2"
       style="fill:#d04526;fill-opacity:1"><path
         d="M 73.795 4.205 C 75.2155 4.8785 76.2 6.3234 76.2 8 C 76.2 10.3196 74.3196 12.2 72 12.2 C 69.6804 12.2 67.8 10.3196 67.8 8 C 67.8 6.3234 68.7845 4.8785 70.205 4.205 L 68.875 2.875 C 67.1501 3.9289 66 5.8306 66 8 C 66 11.3138 68.6862 14 72 14 C 75.3138 14 78 11.3138 78 8 C 78 5.8306 76.8499 3.9289 75.125 2.875 L 73.795 4.205 Z"
         fill="url(#gradient2)"
         id="path4785"
         style="fill:#d04526;fill-opacity:1" /><path
         d="M 71 2 L 66 2 L 71 7 L 71 2 Z"
         fill="url(#gradient3)"
         id="path4787"
         style="fill:#d04526;fill-opacity:1" /></g><g
       id="off2"
       style="fill:#d04526;fill-opacity:1"><path
         d="M 73.795 20.205 C 75.2155 20.8785 76.2 22.3234 76.2 24 C 76.2 26.3196 74.3196 28.2 72 28.2 C 69.6804 28.2 67.8 26.3196 67.8 24 C 67.8 22.3234 68.7845 20.8785 70.205 20.205 L 68.875 18.875 C 67.1501 19.9289 66 21.8306 66 24 C 66 27.3138 68.6862 30 72 30 C 75.3138 30 78 27.3138 78 24 C 78 21.8306 76.8499 19.9289 75.125 18.875 L 73.795 20.205 Z"
         fill="#a8a8b7"
         id="path4790"
         style="fill:#d04526;fill-opacity:1" /><path
         d="M 71 18 L 66 18 L 71 23 L 71 18 Z"
         fill="#a8a8b7"
         id="path4792"
         style="fill:#d04526;fill-opacity:1" /></g></g><g
     id="cc"><rect
       visibility="hidden"
       x="49"
       y="2"
       width="14"
       height="12"
       stroke="#b0b0b0"
       stroke-width="1"
       fill="none"
       id="rect4795" /><text
       visibility="hidden"
       x="49"
       y="17"
       width="14"
       fill="#ffffff"
       style="font-size: 10px; color: #ffffff; font-family: Arial; text-align: center; "
       id="text4797"><tspan
         id="tspan4799"><![CDATA[cc]]></tspan></text>
<path
       d="M 55 7 C 50.2813 3.7813 50.063 12.9405 55 10 "
       stroke="#ffffff"
       stroke-width="1"
       fill="none"
       id="path4801" /><path
       d="M 60 7 C 55.2813 3.7813 55.063 12.9405 60 10 "
       stroke="#ffffff"
       stroke-width="1"
       fill="none"
       id="path4803" /><path
       d="M 50 3 L 62 3 L 62 13 L 50 13 L 50 3 ZM 49 2 L 49 14 L 63 14 L 63 2 L 49 2 Z"
       fill="url(#gradient4)"
       id="path4805" /><rect
       x="49"
       y="2"
       width="14"
       height="12"
       fill="none"
       id="rect4807" /></g><g
     id="volume"
     style="fill:#d04526;fill-opacity:1"><g
       id="no%20sound"
       style="fill-opacity:1;fill:#d04526"><rect
         x="17"
         y="5"
         width="4.018405"
         height="6"
         id="rect4811"
         style="fill:#d04526;fill-opacity:1" /><path
         d="M 21 5 L 25 2 L 25 14 L 21 11.0625 L 21 5 Z"
         fill="url(#gradient6)"
         id="path4813"
         style="fill-opacity:1;fill:#d04526" /></g><g
       id="sound%20bars"
       style="fill:#d04526;fill-opacity:1"><rect
         x="17"
         y="21"
         width="5"
         height="6"
         fill="url(#gradient7)"
         id="rect4816"
         style="fill:#d04526;fill-opacity:1" /><path
         d="M 21 21 L 25 18 L 25 30 L 21 27.0625 L 21 21 Z"
         fill="url(#gradient8)"
         id="path4818"
         style="fill:#d04526;fill-opacity:1" /><path
         d="M 27 18 C 27 18 30.0625 17.375 30 24 C 29.9375 30.625 27 30 27 30 "
         stroke="#ffffff"
         stroke-width="1"
         fill="none"
         id="path4820"
         style="fill:#d04526;fill-opacity:1" /><path
         d="M 26 21.0079 C 26 21.0079 28.041 20.6962 27.9994 24 C 27.9577 27.3038 26 26.9921 26 26.9921 "
         stroke="#ffffff"
         stroke-width="1"
         fill="none"
         id="path4822"
         style="fill:#d04526;fill-opacity:1" /></g></g><g
     id="play/pause"
     style="fill:#d04526;fill-opacity:1"><g
       id="play"
       style="fill:#d04526;fill-opacity:1"><path
         id="Polygon"
         d="M 14 8.5 L 3 14 L 3 3 L 14 8.5 Z"
         fill="url(#gradient9)"
         style="fill:#d04526;fill-opacity:1" /></g><g
       id="pause"
       style="fill:#d04526;fill-opacity:1"><rect
         x="3"
         y="18"
         width="3"
         height="12"
         fill="url(#gradient10)"
         id="rect4828"
         style="fill:#d04526;fill-opacity:1" /><rect
         x="10"
         y="18"
         width="3"
         height="12"
         fill="url(#gradient11)"
         id="rect4830"
         style="fill:#d04526;fill-opacity:1" /></g></g><g
     id="fullscreen"
     style="fill:#d04526;fill-opacity:1"><g
       id="g6343"
       style="fill-opacity:1;fill:#d04526"><g
         id="enter%201"
         style="fill-opacity:1;fill:#d04526"><path
           id="path4834"
           fill="url(#gradient12)"
           d="M 34 2 L 39 2 L 34 7 L 34 2 Z"
           style="fill-opacity:1;fill:#d04526" /><path
           id="path4836"
           fill="url(#gradient13)"
           d="M 34 14 L 39 14 L 34 9 L 34 14 Z"
           style="fill-opacity:1;fill:#d04526" /><path
           id="path4838"
           fill="url(#gradient14)"
           d="M 46 2 L 41 2 L 46 7 L 46 2 Z"
           style="fill-opacity:1;fill:#d04526" /><path
           id="path4840"
           fill="url(#gradient15)"
           d="M 46 14 L 41 14 L 46 9 L 46 14 Z"
           style="fill-opacity:1;fill:#d04526" /></g></g><g
       id="exit"
       style="fill:#d04526;fill-opacity:1"><path
         d="M 42 22 L 46 22 L 42 18 L 42 22 Z"
         fill="url(#gradient16)"
         id="path4843"
         style="fill:#d04526;fill-opacity:1" /><path
         d="M 38 22 L 38 18 L 34 22 L 38 22 Z"
         fill="url(#gradient17)"
         id="path4845"
         style="fill:#d04526;fill-opacity:1" /><path
         d="M 38 26 L 34 26 L 38 30 L 38 26 Z"
         fill="url(#gradient18)"
         id="path4847"
         style="fill:#d04526;fill-opacity:1" /><path
         d="M 42 26 L 42 30 L 46 26 L 42 26 Z"
         fill="url(#gradient19)"
         id="path4849"
         style="fill:#d04526;fill-opacity:1" /></g></g><g
     id="stop"
     style="fill:url(#linearGradient6390);fill-opacity:1"><rect
       x="115"
       y="3"
       width="10"
       height="10"
       fill="url(#gradient20)"
       id="rect4852"
       style="fill:url(#linearGradient6390);fill-opacity:1" /></g><g
     id="chooser"
     style="fill:url(#linearGradient6398);fill-opacity:1"><path
       d="M 135.2346 6.1522 C 136.2551 5.7295 137.4251 6.2141 137.8478 7.2346 C 138.2704 8.2551 137.7859 9.425 136.7654 9.8478 C 135.7449 10.2705 134.5749 9.7859 134.1522 8.7654 C 133.7295 7.7449 134.2141 6.5749 135.2346 6.1522 ZM 133.2735 1.4176 L 136 4.0054 L 138.7265 1.4176 L 138.8246 5.1754 L 142.5824 5.2735 L 139.9946 8 L 142.5824 10.7265 L 138.8246 10.8246 L 138.7265 14.5824 L 136 11.9946 L 133.2735 14.5824 L 133.1754 10.8246 L 129.4176 10.7265 L 132.0054 8 L 129.4176 5.2735 L 133.1754 5.1754 L 133.2735 1.4176 Z"
       fill="url(#gradient21)"
       id="path4855"
       style="fill:url(#linearGradient6398);fill-opacity:1" /></g><path
     style="fill:#d04526;fill-opacity:0;stroke:none;stroke-opacity:1"
     d="m 6.7457512,10.212317 -3.7055215,-0.02572 0,-0.6756012 0,-0.6756015 1.4969326,-0.06539 c 0.8233128,-0.035964 3.138816,-0.051658 5.1455624,-0.034875 l 3.6486293,0.030515 -1.44004,0.7361963 -1.440041,0.7361965 -3.7055218,-0.02572 z"
     id="path6419"
     inkscape:connector-curvature="0" /></svg>